<svg width="10.000000" height="8.000000" viewBox="0 0 10 8" fill="none" xmlns="http://www.w3.org/2000/svg" xmlns:xlink="http://www.w3.org/1999/xlink">
	<desc>
			Created with Pixso.
	</desc>
	<defs/>
	<path id="check" d="M9.46 0L8.64 0C8.53 0 8.42 0.05 8.35 0.14L3.52 6.26L1.2 3.32C1.17 3.28 1.12 3.24 1.07 3.22C1.02 3.19 0.96 3.18 0.91 3.18L0.09 3.18C0.01 3.18 -0.03 3.27 0.02 3.33L3.22 7.4C3.37 7.59 3.66 7.59 3.81 7.4L9.54 0.15C9.59 0.09 9.54 0 9.46 0Z" fill="#FFFFFF" fill-opacity="1.000000" fill-rule="nonzero"/>
	<path id="check" d="M9.46 -0.31L8.64 -0.31Q8.57 -0.31 8.49 -0.29Q8.42 -0.27 8.35 -0.24Q8.28 -0.2 8.22 -0.15Q8.16 -0.11 8.11 -0.05L3.52 5.77L1.44 3.14Q1.39 3.08 1.33 3.03Q1.27 2.98 1.2 2.95Q1.13 2.91 1.06 2.9Q0.99 2.88 0.91 2.88L0.09 2.88Q0.03 2.88 -0.03 2.9Q-0.08 2.91 -0.13 2.94Q-0.17 2.97 -0.2 3.01Q-0.24 3.05 -0.27 3.1Q-0.29 3.15 -0.3 3.21Q-0.31 3.26 -0.3 3.31Q-0.3 3.36 -0.28 3.41Q-0.26 3.47 -0.22 3.52L2.99 7.58Q3.04 7.65 3.11 7.7Q3.17 7.75 3.23 7.78Q3.3 7.81 3.36 7.82Q3.44 7.84 3.52 7.84Q3.6 7.84 3.67 7.82Q3.74 7.81 3.81 7.78Q3.87 7.75 3.93 7.7Q4 7.65 4.05 7.58L9.77 0.33Q9.81 0.29 9.83 0.24Q9.85 0.19 9.86 0.12Q9.86 0.07 9.85 0.02Q9.84 -0.03 9.82 -0.08Q9.79 -0.13 9.76 -0.17Q9.72 -0.21 9.68 -0.24Q9.63 -0.27 9.58 -0.29Q9.53 -0.31 9.46 -0.31ZM3.71 6.02L3.52 6.26L3.33 6.02L1.2 3.32C1.17 3.28 1.12 3.24 1.07 3.22C1.02 3.19 0.96 3.18 0.91 3.18L0.09 3.18C0.01 3.18 -0.03 3.27 0.02 3.33L0.13 3.48L0.13 3.48L3.22 7.4C3.37 7.59 3.66 7.59 3.81 7.4L9.42 0.3L9.42 0.29L9.54 0.15C9.59 0.09 9.54 0 9.46 0L8.64 0C8.53 0 8.42 0.05 8.35 0.14L3.71 6.02Z" fill="#FFFFFF" fill-opacity="1.000000" fill-rule="evenodd"/>
</svg>
