<svg width="16.000000" height="15.000000" viewBox="0 0 16 15" fill="none" xmlns="http://www.w3.org/2000/svg" xmlns:xlink="http://www.w3.org/1999/xlink">
	<desc>
			Created with Pixso.
	</desc>
	<defs/>
	<path id="Vector" d="M8 14.1C7.77 14.1 7.55 14.02 7.38 13.87C6.73 13.31 6.11 12.78 5.56 12.31L5.55 12.31C3.94 10.93 2.55 9.75 1.58 8.58C0.5 7.27 0 6.03 0 4.68C0 3.36 0.45 2.15 1.26 1.26C2.09 0.36 3.23 -0.13 4.46 -0.13C5.39 -0.13 6.23 0.16 6.98 0.74C7.35 1.03 7.69 1.38 8 1.8C8.3 1.38 8.64 1.03 9.01 0.74C9.76 0.16 10.6 -0.13 11.53 -0.13C12.76 -0.13 13.9 0.36 14.73 1.26C15.54 2.15 16 3.36 16 4.68C16 6.03 15.49 7.27 14.41 8.58C13.44 9.75 12.05 10.93 10.44 12.3C9.89 12.77 9.26 13.31 8.61 13.87C8.44 14.02 8.22 14.1 8 14.1ZM4.46 0.81C3.49 0.81 2.6 1.19 1.95 1.9C1.29 2.61 0.93 3.6 0.93 4.68C0.93 5.82 1.36 6.83 2.3 7.98C3.22 9.08 4.58 10.25 6.16 11.59L6.17 11.59C6.72 12.06 7.34 12.6 7.99 13.17C8.65 12.6 9.28 12.06 9.83 11.59C11.41 10.25 12.77 9.08 13.69 7.98C14.63 6.83 15.06 5.82 15.06 4.68C15.06 3.6 14.7 2.61 14.04 1.9C13.39 1.19 12.5 0.81 11.53 0.81C10.81 0.81 10.16 1.03 9.58 1.48C9.07 1.88 8.71 2.38 8.5 2.73C8.4 2.91 8.21 3.02 8 3.02C7.78 3.02 7.59 2.91 7.49 2.73C7.28 2.38 6.92 1.88 6.41 1.48C5.83 1.03 5.18 0.81 4.46 0.81Z" fill="#000000" fill-opacity="0.750000" fill-rule="nonzero"/>
</svg>
